<svg width="33" height="42" viewBox="0 0 33 42" fill="none" xmlns="http://www.w3.org/2000/svg">
<path d="M31.4831 16.951C29.2502 11.0836 21.1651 1.33222 6.6881 9.26603" stroke="#D5B9FF" stroke-width="3"/>
<path d="M5.29462 9.33681C5.09325 9.85108 5.34691 10.4312 5.86118 10.6326L14.2417 13.914C14.7559 14.1154 15.3361 13.8617 15.5374 13.3474C15.7388 12.8332 15.4851 12.253 14.9709 12.0517L7.52154 9.13485L10.4384 1.68554C10.6397 1.17127 10.3861 0.591141 9.87179 0.389777C9.35752 0.188414 8.77739 0.442072 8.57603 0.95634L5.29462 9.33681ZM7.2737 8.15181L5.82516 8.78517L6.6264 10.6177L8.07494 9.9843L7.2737 8.15181Z" fill="#D5B9FF"/>
<path d="M2.17542 22.9999C3.78093 29.0691 10.7992 39.6143 26.0282 33.2418" stroke="#D5B9FF" stroke-width="3"/>
<path d="M27.4214 33.3175C27.6755 32.8272 27.4841 32.2237 26.9938 31.9695L19.0035 27.8276C18.5131 27.5735 17.9096 27.7649 17.6554 28.2553C17.4013 28.7456 17.5927 29.3491 18.083 29.6033L25.1855 33.2849L21.5039 40.3874C21.2497 40.8777 21.4412 41.4813 21.9315 41.7354C22.4218 41.9896 23.0254 41.7981 23.2795 41.3078L27.4214 33.3175ZM25.329 34.2885L26.8359 33.8105L26.2312 31.9041L24.7242 32.3821L25.329 34.2885Z" fill="#D5B9FF"/>
</svg>
